# xmcd
#
# Track frame offsets: 
#        150
#        15402
#        34942
#        48277
#        64312
#        84250
#        107892
#        121055
#        140585
#        173395
#        193570
#        213112
#        232272
#        246732
#        267060
#
# Disc length: 3814 seconds
#
# Revision: 1
# Processed by: cddbd v1.5.2PL0 Copyright (c) Steve Scherf et al.
# Submitted via: ExactAudioCopy v1.0b1
#
DISCID=cb0ee40f
DTITLE=Larry's Bluesband - Ready 4 You
DYEAR=2007
DGENRE=Blues
TTITLE0=Born In 1950
TTITLE1=I Dont Like Mobiles
TTITLE2=Ready 4 Love
TTITLE3=Big Daddy
TTITLE4=Cloudy In The Sky
TTITLE5=Rolling Man
TTITLE6=Anytime For You
TTITLE7=Louisiana D.S.
TTITLE8=Mr. Bluesman
TTITLE9=When It All Comes Down
TTITLE10=Real Good Thing
TTITLE11=Start It Up
TTITLE12=Dreaming
TTITLE13=So Long Darlin'
TTITLE14=Albatros
EXTD=YEAR: 2007
EXTT0=
EXTT1=
EXTT2=
EXTT3=
EXTT4=
EXTT5=
EXTT6=
EXTT7=
EXTT8=
EXTT9=
EXTT10=
EXTT11=
EXTT12=
EXTT13=
EXTT14=
PLAYORDER=
